<svg version="1.0" xmlns="http://www.w3.org/2000/svg"
 width="512.000000pt" height="512.000000pt" viewBox="0 0 512.000000 512.000000"
 preserveAspectRatio="xMidYMid meet">

<g transform="translate(0.000000,512.000000) scale(0.100000,-0.100000)"
fill="#6a5dab" stroke="none">
<path d="M2513 4650 c-30 -27 -35 -77 -31 -289 l3 -183 28 -24 c15 -13 37 -24
47 -24 10 0 32 11 47 24 l28 24 3 183 c2 101 1 202 -3 226 -7 50 -37 83 -75
83 -14 0 -36 -9 -47 -20z"/>
<path d="M1612 4500 c-14 -13 -22 -33 -22 -53 0 -41 200 -451 225 -460 51 -20
105 12 105 63 0 35 -191 436 -217 456 -26 20 -66 17 -91 -6z"/>
<path d="M3417 4506 c-26 -20 -217 -420 -217 -455 0 -30 38 -71 66 -71 45 0
63 24 163 230 62 127 101 219 101 238 0 57 -68 92 -113 58z"/>
<path d="M882 4067 c-12 -13 -22 -35 -22 -50 0 -28 99 -238 128 -269 36 -42
122 -8 122 47 0 37 -114 271 -138 284 -33 17 -67 13 -90 -12z"/>
<path d="M4146 4078 c-23 -13 -136 -248 -136 -283 0 -55 86 -89 122 -47 29 32
128 242 128 270 0 54 -65 89 -114 60z"/>
<path d="M1650 3775 c-172 -35 -317 -113 -445 -240 -79 -78 -162 -192 -635
-869 -300 -428 -551 -791 -559 -807 -28 -56 31 -123 90 -101 16 7 200 261 581
803 306 437 575 815 598 842 48 54 139 122 220 162 95 48 167 66 291 72 142 7
236 -11 354 -67 127 -60 185 -113 185 -172 l0 -26 -48 18 c-131 50 -334 64
-480 34 -190 -39 -382 -152 -503 -297 -28 -34 -56 -72 -62 -84 -22 -49 39
-115 92 -98 11 3 42 33 68 66 92 114 229 206 373 251 64 20 96 23 215 23 125
-1 149 -4 220 -28 106 -35 243 -113 261 -149 8 -15 14 -46 14 -69 0 -33 -6
-47 -34 -75 -43 -43 -90 -45 -177 -8 -198 83 -416 39 -569 -114 -144 -144
-228 -424 -186 -621 31 -146 115 -281 228 -366 34 -25 204 -118 379 -205 206
-104 324 -169 338 -186 24 -31 28 -96 7 -132 -19 -36 -66 -62 -112 -62 -23 0
-108 9 -189 20 -81 11 -165 20 -186 20 -49 0 -79 -28 -79 -73 0 -58 19 -66
222 -93 269 -35 306 -32 396 27 l42 28 43 -28 c55 -37 99 -51 159 -51 26 0
189 18 360 40 337 43 438 48 536 25 75 -18 181 -71 243 -122 63 -52 234 -247
543 -623 373 -452 361 -440 401 -440 38 0 75 37 75 76 0 25 -499 639 -746 919
-179 202 -262 264 -429 321 -134 45 -247 44 -626 -5 -353 -46 -378 -47 -419
-26 -59 30 -80 127 -39 179 14 17 132 82 338 186 175 87 345 180 379 205 158
119 252 323 239 520 -6 91 -42 216 -93 323 -121 252 -416 366 -673 258 -87
-37 -134 -35 -177 8 -29 29 -34 41 -34 80 0 60 34 98 136 153 133 70 207 88
364 88 113 0 147 -4 210 -23 144 -45 281 -137 374 -252 26 -33 58 -63 70 -66
52 -13 105 39 92 91 -9 36 -121 159 -197 217 -84 64 -211 128 -314 159 -151
44 -390 35 -536 -21 l-49 -18 0 33 c0 47 39 89 119 129 139 69 257 97 411 97
162 -1 293 -45 427 -144 82 -61 122 -112 373 -470 157 -226 221 -309 239 -314
58 -14 115 43 92 93 -23 51 -457 660 -512 719 -107 114 -264 207 -415 245
-216 56 -438 27 -674 -88 -162 -79 -218 -161 -208 -304 l5 -69 -43 -30 -44
-30 -45 31 -44 30 6 65 c12 129 -36 211 -167 289 -163 97 -308 137 -487 135
-59 0 -137 -7 -173 -14z m576 -965 c116 -46 215 -40 293 18 33 24 35 25 60 9
109 -69 193 -76 318 -25 193 78 389 13 480 -159 133 -252 120 -459 -40 -629
-58 -63 -71 -70 -387 -229 -180 -90 -341 -176 -359 -190 l-31 -27 -31 26 c-16
14 -178 100 -358 191 -317 159 -330 167 -389 229 -156 167 -171 369 -45 619
92 182 285 249 489 167z"/>
<path d="M4515 2608 c-29 -16 -45 -39 -45 -66 0 -16 91 -154 252 -386 139
-198 263 -371 275 -383 58 -59 152 14 113 87 -32 61 -515 737 -533 747 -27 15
-37 15 -62 1z"/>
<path d="M1421 1330 c-93 -25 -199 -76 -277 -134 -34 -25 -122 -115 -195 -198
-199 -225 -732 -875 -744 -904 -20 -53 45 -111 98 -87 13 6 161 177 328 380
499 606 569 681 700 748 94 48 170 65 293 65 93 0 109 3 126 20 33 33 30 75
-6 108 -23 20 -35 22 -137 21 -77 0 -135 -6 -186 -19z"/>
</g>
</svg>
