<svg version="1.0" xmlns="http://www.w3.org/2000/svg"
 width="512.000000pt" height="512.000000pt" viewBox="0 0 512.000000 512.000000"
 preserveAspectRatio="xMidYMid meet">

<g transform="translate(0.000000,512.000000) scale(0.100000,-0.100000)"
fill="#6a5dab" stroke="none">
<path d="M0 4865 l0 -255 270 0 c171 0 270 -4 270 -10 0 -13 498 -3256 506
-3293 l6 -27 1727 0 1727 0 303 1392 c167 766 306 1400 309 1410 4 17 -84 18
-1981 18 l-1985 0 -17 93 c-9 50 -49 279 -89 507 l-72 415 -487 3 -487 2 0
-255z m4500 -1292 c0 -5 -91 -407 -202 -896 l-203 -887 -1305 2 -1305 3 -121
845 c-67 465 -125 866 -128 893 l-7 47 1636 0 c899 0 1635 -3 1635 -7z"/>
<path d="M1820 755 c-107 -30 -200 -110 -249 -214 -23 -49 -26 -68 -26 -161 0
-98 2 -109 32 -165 38 -75 115 -148 191 -183 49 -22 71 -26 152 -26 83 -1 102
3 153 26 80 38 158 114 193 191 26 55 29 73 29 162 0 93 -2 105 -33 167 -80
164 -270 251 -442 203z"/>
<path d="M3632 760 c-110 -23 -215 -108 -269 -219 -25 -50 -28 -67 -28 -156 0
-93 2 -105 33 -167 40 -83 119 -158 200 -189 44 -18 77 -23 147 -24 80 0 97 4
155 31 251 119 301 441 98 629 -89 83 -220 120 -336 95z"/>
</g>
</svg>
