<svg version="1.0" xmlns="http://www.w3.org/2000/svg"
 width="512.000000pt" height="512.000000pt" viewBox="0 0 512.000000 512.000000"
 preserveAspectRatio="xMidYMid meet">

<g transform="translate(0.000000,512.000000) scale(0.100000,-0.100000)"
fill="#6a5dab" stroke="none">
<path d="M2083 5109 c-17 -5 -42 -22 -53 -37 -24 -29 -24 -24 0 -262 25 -256
-34 -712 -139 -1071 -39 -132 -113 -332 -132 -355 -6 -7 -54 -14 -117 -16
-191 -8 -323 -79 -462 -248 -18 -23 -21 -24 -30 -8 -40 67 -151 168 -225 206
-150 75 -342 68 -478 -18 -151 -96 -255 -252 -310 -468 l-22 -87 0 -1060 0
-1060 22 -88 c83 -324 306 -537 563 -537 157 0 336 98 431 237 l30 43 38 -48
c76 -95 172 -163 291 -204 l65 -23 1235 0 1235 0 65 23 c166 57 307 210 380
409 27 76 515 2220 534 2351 10 65 -11 169 -50 249 -63 132 -199 249 -354 305
l-65 23 -757 3 c-634 2 -758 5 -758 16 0 8 9 65 19 128 45 266 52 582 16 783
-78 438 -356 748 -729 814 -71 13 -199 13 -243 0z m265 -295 c237 -48 382
-193 476 -475 71 -213 70 -439 -4 -957 -22 -151 -16 -184 36 -219 26 -17 75
-18 839 -23 l810 -5 67 -32 c128 -61 208 -162 208 -265 0 -68 -483 -2228 -519
-2324 -36 -93 -93 -177 -149 -220 -89 -68 -20 -65 -1343 -62 l-1194 3 -63 29
c-80 37 -161 122 -194 203 l-23 58 0 1165 0 1165 32 67 c39 82 100 145 179
184 55 27 69 29 209 34 124 4 156 8 179 23 52 35 153 281 221 542 96 366 119
540 113 877 l-4 248 24 0 c12 0 58 -7 100 -16z m-1533 -1698 c101 -47 190
-172 232 -326 17 -60 18 -138 18 -1105 0 -977 -1 -1044 -18 -1105 -42 -148
-120 -261 -219 -315 -45 -25 -64 -30 -123 -30 -128 1 -229 73 -298 215 -76
155 -72 84 -72 1235 0 953 1 1035 18 1099 44 171 151 312 265 346 56 17 145
11 197 -14z"/>
</g>
</svg>
