<svg version="1.0" xmlns="http://www.w3.org/2000/svg"
 width="512.000000pt" height="512.000000pt" viewBox="0 0 512.000000 512.000000"
 preserveAspectRatio="xMidYMid meet">

<g transform="translate(0.000000,512.000000) scale(0.100000,-0.100000)"
fill="#6a5dab" stroke="none">
<path d="M1202 4750 c-450 -64 -871 -358 -1065 -745 -98 -193 -132 -343 -131
-575 0 -175 12 -266 60 -433 206 -728 947 -1562 2149 -2419 243 -173 315 -218
345 -218 21 0 68 26 157 86 379 258 775 563 793 609 22 58 -29 135 -90 135
-31 0 -58 -18 -262 -175 -141 -109 -298 -225 -430 -318 l-68 -48 0 259 0 260
65 -6 c282 -22 535 213 535 498 0 285 -253 520 -535 498 l-65 -6 0 204 0 203
301 3 301 3 25 29 c30 35 28 76 -7 171 -37 101 -15 214 59 298 82 92 237 121
353 64 136 -67 200 -222 148 -362 -35 -95 -37 -136 -7 -171 l25 -29 392 -5
392 -5 -82 -125 c-132 -200 -268 -370 -462 -579 -62 -65 -108 -124 -111 -140
-13 -65 56 -132 119 -117 33 8 145 120 298 301 387 455 599 842 687 1255 18
84 23 138 23 275 1 184 -11 264 -60 412 -185 551 -760 943 -1349 920 -405 -16
-792 -197 -1073 -503 l-69 -74 -119 118 c-227 226 -489 369 -789 432 -114 23
-352 34 -453 20z m413 -215 c163 -34 310 -94 450 -186 97 -63 238 -180 228
-189 -5 -3 -30 -12 -58 -18 -87 -22 -157 -63 -226 -131 -70 -71 -109 -138
-134 -236 -82 -319 190 -639 520 -613 l65 6 0 -204 0 -203 -301 -3 -301 -3
-25 -29 c-30 -35 -28 -76 7 -171 53 -143 -16 -303 -159 -369 -64 -29 -178 -29
-242 0 -143 66 -212 226 -159 369 35 95 37 136 7 171 l-25 29 -448 5 -448 5
-43 105 c-180 449 -158 839 68 1171 170 251 475 444 794 504 100 18 317 14
430 -10z m2395 -8 c129 -34 239 -77 337 -134 282 -165 461 -395 540 -691 23
-84 26 -118 27 -257 0 -117 -4 -184 -17 -250 -21 -100 -82 -289 -122 -377
l-26 -58 -349 0 -348 0 6 65 c22 282 -213 535 -498 535 -285 0 -520 -253 -498
-535 l6 -65 -204 0 -203 0 -3 301 -3 301 -29 25 c-35 30 -76 28 -171 -7 -101
-37 -214 -15 -298 59 -92 82 -121 237 -64 353 67 136 222 200 362 148 77 -28
127 -35 154 -21 11 6 39 39 62 73 82 121 247 274 394 365 140 88 335 161 500
188 132 21 324 14 445 -18z m-2948 -2032 c-22 -282 213 -535 498 -535 285 0
520 253 498 535 l-6 65 204 0 203 0 3 -301 3 -301 29 -25 c35 -30 76 -28 171
7 143 53 303 -16 369 -159 29 -64 29 -178 0 -242 -66 -143 -226 -212 -369
-159 -95 35 -136 37 -171 7 l-29 -25 -5 -355 -5 -355 -210 152 c-698 504
-1205 974 -1555 1441 -89 119 -168 235 -199 293 l-12 22 294 0 295 0 -6 -65z"/>
<path d="M3711 1466 c-87 -48 -50 -186 49 -186 51 0 100 49 100 99 0 75 -83
124 -149 87z"/>
</g>
</svg>
