<svg version="1.0" xmlns="http://www.w3.org/2000/svg"
 width="512.000000pt" height="512.000000pt" viewBox="0 0 512.000000 512.000000"
 preserveAspectRatio="xMidYMid meet">

<g transform="translate(0.000000,512.000000) scale(0.100000,-0.100000)"
fill="#6a5dab" stroke="none">
<path d="M1075 5109 c-113 -14 -242 -56 -370 -119 -263 -129 -453 -321 -581
-585 -101 -208 -138 -413 -116 -629 16 -150 50 -265 122 -411 129 -263 321
-453 585 -581 138 -67 256 -101 401 -116 216 -22 421 15 629 116 264 128 456
318 585 581 72 146 106 261 122 411 23 221 -16 424 -122 639 -129 263 -321
453 -585 581 -220 106 -434 142 -670 113z m385 -219 c98 -24 280 -109 360
-169 75 -56 181 -162 236 -235 65 -86 150 -265 176 -371 31 -127 31 -323 0
-450 -26 -106 -111 -285 -176 -371 -55 -73 -161 -179 -236 -235 -81 -61 -262
-145 -365 -171 -127 -31 -323 -31 -450 0 -103 26 -284 110 -365 171 -75 56
-181 162 -236 235 -65 86 -150 265 -176 371 -31 127 -31 323 0 450 26 106 111
285 176 371 54 72 161 179 232 232 65 49 210 124 291 151 162 55 363 63 533
21z"/>
<path d="M895 4281 c-62 -26 -81 -110 -34 -156 14 -14 42 -28 62 -32 32 -5 41
-1 72 30 47 47 48 86 1 133 -34 34 -61 41 -101 25z"/>
<path d="M1494 4280 c-32 -13 -64 -59 -64 -91 0 -40 46 -88 91 -95 31 -5 42
-1 70 24 28 25 34 37 34 72 0 35 -6 47 -33 71 -33 29 -60 35 -98 19z"/>
<path d="M695 3681 c-64 -27 -81 -110 -32 -158 l27 -28 535 -3 534 -3 33 30
c27 24 33 36 33 71 0 35 -6 47 -33 71 l-32 29 -523 -1 c-287 0 -531 -4 -542
-8z"/>
<path d="M3735 5109 c-113 -14 -242 -56 -370 -119 -263 -129 -453 -321 -581
-585 -101 -208 -138 -413 -116 -629 16 -150 50 -265 122 -411 129 -263 321
-453 585 -581 210 -101 415 -139 631 -115 147 16 262 49 399 115 264 128 456
318 585 581 71 145 104 257 121 409 24 221 -14 424 -121 641 -129 263 -321
453 -585 581 -220 106 -434 142 -670 113z m385 -219 c98 -24 280 -109 360
-169 75 -56 181 -162 236 -235 65 -86 150 -265 176 -371 31 -127 31 -323 0
-450 -26 -106 -111 -285 -176 -371 -55 -73 -161 -179 -236 -235 -81 -61 -262
-145 -365 -171 -127 -31 -323 -31 -450 0 -103 26 -284 110 -365 171 -75 56
-181 162 -236 235 -65 86 -150 265 -176 371 -31 127 -31 323 0 450 26 106 111
285 176 371 54 72 161 179 232 232 65 49 210 124 291 151 162 55 363 63 533
21z"/>
<path d="M3554 4280 c-32 -13 -64 -59 -64 -91 0 -40 46 -88 91 -95 31 -5 42
-1 70 24 28 25 34 37 34 72 0 35 -6 47 -33 71 -33 29 -60 35 -98 19z"/>
<path d="M4154 4280 c-32 -13 -64 -59 -64 -91 0 -40 46 -88 91 -95 31 -5 42
-1 70 24 28 25 34 37 34 72 0 35 -6 47 -33 71 -33 29 -60 35 -98 19z"/>
<path d="M3354 3980 c-12 -4 -31 -21 -43 -36 -25 -32 -27 -79 -6 -179 57 -270
309 -475 585 -475 278 0 528 205 586 480 22 104 15 157 -26 193 -27 24 -39 28
-69 23 -55 -8 -86 -50 -94 -123 -31 -295 -326 -456 -588 -322 -60 30 -136 111
-165 174 -14 31 -32 93 -40 138 -12 69 -19 86 -44 110 -31 27 -58 33 -96 17z"/>
<path d="M1075 2449 c-113 -14 -242 -56 -370 -119 -263 -129 -453 -321 -581
-585 -101 -208 -138 -413 -116 -629 16 -150 50 -265 122 -411 129 -263 321
-453 585 -581 208 -101 413 -138 629 -116 145 15 263 49 401 116 264 128 456
318 585 581 72 146 106 261 122 411 23 221 -16 424 -122 639 -129 263 -321
453 -585 581 -220 106 -434 142 -670 113z m385 -219 c98 -24 280 -109 360
-169 75 -56 181 -162 236 -235 65 -86 150 -265 176 -371 31 -127 31 -323 0
-450 -26 -106 -111 -285 -176 -371 -55 -73 -161 -179 -236 -235 -81 -61 -262
-145 -365 -171 -127 -31 -323 -31 -450 0 -103 26 -284 110 -365 171 -75 56
-181 162 -236 235 -65 86 -150 265 -176 371 -31 127 -31 323 0 450 26 106 111
285 176 371 54 72 161 179 232 232 65 49 210 124 291 151 162 55 363 63 533
21z"/>
<path d="M895 1621 c-62 -26 -81 -110 -34 -156 14 -14 42 -28 62 -32 32 -5 41
-1 72 30 47 47 48 86 1 133 -34 34 -61 41 -101 25z"/>
<path d="M1494 1620 c-32 -13 -64 -59 -64 -91 0 -40 46 -88 91 -95 31 -5 42
-1 70 24 28 25 34 37 34 72 0 35 -6 47 -33 71 -33 29 -60 35 -98 19z"/>
<path d="M1100 1314 c-223 -48 -408 -236 -456 -464 -28 -134 -3 -203 79 -217
32 -5 41 -1 70 28 29 29 35 43 40 95 23 219 184 369 397 369 212 0 374 -150
397 -368 8 -73 39 -115 94 -123 30 -5 42 -1 69 23 41 36 48 89 26 193 -48 230
-234 417 -461 465 -86 18 -169 18 -255 -1z"/>
<path d="M3735 2449 c-113 -14 -242 -56 -370 -119 -263 -129 -453 -321 -581
-585 -101 -208 -138 -413 -116 -629 16 -150 50 -265 122 -411 129 -263 321
-453 585 -581 208 -101 413 -138 629 -116 145 15 263 49 401 116 264 128 456
318 585 581 106 215 145 418 122 639 -16 150 -50 265 -122 411 -129 263 -321
453 -585 581 -220 106 -434 142 -670 113z m385 -219 c98 -24 280 -109 360
-169 75 -56 181 -162 236 -235 65 -86 150 -265 176 -371 31 -127 31 -323 0
-450 -26 -106 -111 -285 -176 -371 -55 -73 -161 -179 -236 -235 -81 -61 -262
-145 -365 -171 -127 -31 -323 -31 -450 0 -103 26 -284 110 -365 171 -75 56
-181 162 -236 235 -65 86 -150 265 -176 371 -31 127 -31 323 0 450 26 106 111
285 176 371 54 72 161 179 232 232 65 49 210 124 291 151 162 55 363 63 533
21z"/>
<path d="M3343 1718 c-22 -11 -53 -64 -53 -92 0 -46 25 -68 153 -132 70 -35
137 -64 147 -64 35 0 69 22 85 55 36 78 17 103 -138 181 -130 65 -154 71 -194
52z"/>
<path d="M4243 1666 c-155 -78 -174 -103 -138 -181 16 -33 50 -55 85 -55 10 0
77 29 147 64 155 78 174 103 138 181 -16 33 -50 55 -85 55 -10 0 -77 -29 -147
-64z"/>
<path d="M3760 1314 c-221 -47 -408 -236 -455 -459 -23 -110 -20 -149 14 -187
l29 -33 536 -3 535 -3 32 29 c40 35 47 89 25 192 -48 230 -234 417 -461 465
-86 18 -169 18 -255 -1z m226 -198 c121 -32 211 -107 265 -221 l29 -60 -195
-3 c-107 -1 -283 -1 -390 0 l-195 3 29 60 c85 178 275 270 457 221z"/>
</g>
</svg>
